<?xml version="1.0" encoding="utf-8"?>
<!-- Generator: Adobe Illustrator 24.0.0, SVG Export Plug-In . SVG Version: 6.00 Build 0)  -->
<svg version="1.1" id="Capa_1" xmlns="http://www.w3.org/2000/svg" xmlns:xlink="http://www.w3.org/1999/xlink" x="0px" y="0px"
	 viewBox="0 0 512 486.65" style="enable-background:new 0 0 512 486.65;" xml:space="preserve">
<style type="text/css">
	.st0{fill:#FFFFFF;}
</style>
<g>
	<g>
		<path class="st0" d="M503.4,216.21l-43.25-39.41V46.11c0-8.31-6.74-15.06-15.06-15.06H340.98c-8.32,0-15.06,6.74-15.06,15.06v8.37
			l-52.24-47.6c-10.08-9.19-25.29-9.19-35.37,0L8.6,216.21c-8.08,7.36-10.74,18.7-6.8,28.89c3.95,10.19,13.56,16.77,24.48,16.77
			h36.69v209.72c0,8.32,6.74,15.06,15.06,15.06h125.91c8.32,0,15.06-6.74,15.06-15.06V344.26h74v127.34
			c0,8.32,6.74,15.06,15.06,15.06h125.91c8.32,0,15.06-6.74,15.06-15.06V261.87h36.7c10.93,0,20.54-6.58,24.48-16.77
			C514.15,234.91,511.48,223.57,503.4,216.21z M433.96,231.76c-8.32,0-15.06,6.74-15.06,15.06v209.72h-95.79V329.2
			c0-8.32-6.74-15.06-15.06-15.06H203.94c-8.32,0-15.06,6.74-15.06,15.06v127.34h-95.8V246.81c0-8.32-6.74-15.06-15.06-15.06H36.24
			L256,31.52l74.84,68.19c4.41,4.02,10.77,5.05,16.22,2.64c5.45-2.41,8.97-7.81,8.97-13.77V61.17h74v122.28
			c0,4.24,1.78,8.28,4.92,11.13l40.8,37.18L433.96,231.76L433.96,231.76z"/>
	</g>
</g>
</svg>
