<?xml version="1.0" encoding="utf-8"?>
<!-- Generator: Adobe Illustrator 24.0.0, SVG Export Plug-In . SVG Version: 6.00 Build 0)  -->
<svg version="1.1" id="Capa_1" xmlns="http://www.w3.org/2000/svg" xmlns:xlink="http://www.w3.org/1999/xlink" x="0px" y="0px"
	 viewBox="0 0 512 512" style="enable-background:new 0 0 512 512;" xml:space="preserve">
<style type="text/css">
	.st0{fill:#151825;}
	.st1{fill:#FFFFFF;}
</style>
<circle class="st0" cx="255.2" cy="255.8" r="255.8"/>
<g>
	<path class="st1" d="M350.8,335.8l-14.4-24.6H167.7l-14.4,24.6H350.8z"/>
	<path class="st1" d="M176.4,250.8l-6.4,1v44.2h164v-44.2l-6.4-1c-5.1-0.8-8.7-5.1-8.7-10.3s3.7-9.5,8.7-10.3l6.4-1v-22.9
		c0-45.2-36.8-82-82-82c-45.2,0-82,36.8-82,82v22.9l6.4,1c5.1,0.8,8.7,5.1,8.7,10.3S181.4,250,176.4,250.8z M221.7,193.9h22.8v-21.1
		h15.1v21.1h22.8V209h-22.8v49.9h-15.1V209h-22.8V193.9z"/>
	<path class="st1" d="M123,350.9h258v31.5H123V350.9z"/>
</g>
</svg>
