<?xml version="1.0" encoding="utf-8"?>
<!-- Generator: Adobe Illustrator 24.0.0, SVG Export Plug-In . SVG Version: 6.00 Build 0)  -->
<svg version="1.1" id="Capa_1" xmlns="http://www.w3.org/2000/svg" xmlns:xlink="http://www.w3.org/1999/xlink" x="0px" y="0px"
	 viewBox="0 0 512 512" style="enable-background:new 0 0 512 512;" xml:space="preserve">
<style type="text/css">
	.st0{fill:#151825;stroke:#FFFFFF;stroke-miterlimit:10;}
	.st1{fill:#FFFFFF;}
</style>
<circle class="st0" cx="256" cy="256.4" r="255.8"/>
<g>
	<g>
		<g>
			<ellipse transform="matrix(0.141 -0.99 0.99 0.141 64.9677 387.2727)" class="st1" cx="255.7" cy="156.2" rx="25" ry="25"/>
			<path class="st1" d="M297.2,189.5H214c-11.5,0-20.8,9.3-20.8,20.8v62.4c0,6.9,5.6,12.5,12.5,12.5s12.5-5.6,12.5-12.5v-54.1h8.4
				v149.8c0,6.9,5.6,12.5,12.5,12.5c6.9,0,12.5-5.6,12.5-12.5v-83.2h8.4v83.2c0,6.9,5.6,12.5,12.5,12.5s12.5-5.6,12.5-12.5V218.6
				h8.4v54.1c0,6.9,5.6,12.5,12.5,12.5c6.9,0,12.5-5.6,12.5-12.5v-62.4C318.1,198.8,308.8,189.5,297.2,189.5z"/>
		</g>
	</g>
</g>
</svg>
