<?xml version="1.0" encoding="utf-8"?>
<!-- Generator: Adobe Illustrator 24.0.0, SVG Export Plug-In . SVG Version: 6.00 Build 0)  -->
<svg version="1.1" id="Capa_1" xmlns="http://www.w3.org/2000/svg" xmlns:xlink="http://www.w3.org/1999/xlink" x="0px" y="0px"
	 viewBox="0 0 512 512" style="enable-background:new 0 0 512 512;" xml:space="preserve">
<style type="text/css">
	.st0{fill:#151825;}
	.st1{fill:#FFFFFF;}
</style>
<circle class="st0" cx="255.2" cy="255.8" r="255.8"/>
<path class="st1" d="M290.9,374.1h-75.8c-3.9,0-7.1-3.2-7.1-7.1v-68.7h-68.7c-3.9,0-7.1-3.2-7.1-7.1v-75.8c0-3.9,3.2-7.1,7.1-7.1
	H208v-68.7c0-3.9,3.2-7.1,7.1-7.1h75.8c3.9,0,7.1,3.2,7.1,7.1v68.7h68.7c3.9,0,7.1,3.2,7.1,7.1v75.8c0,3.9-3.2,7.1-7.1,7.1H298V367
	C298,371,294.8,374.1,290.9,374.1z"/>
</svg>
