<?xml version="1.0" encoding="utf-8"?>
<!-- Generator: Adobe Illustrator 24.0.0, SVG Export Plug-In . SVG Version: 6.00 Build 0)  -->
<svg version="1.1" id="Capa_1" xmlns="http://www.w3.org/2000/svg" xmlns:xlink="http://www.w3.org/1999/xlink" x="0px" y="0px"
	 viewBox="0 0 512 512" style="enable-background:new 0 0 512 512;" xml:space="preserve">
<style type="text/css">
	.st0{fill:#151825;stroke:#FFFFFF;stroke-miterlimit:10;}
	.st1{fill:#FFFFFF;}
</style>
<circle class="st0" cx="255.9" cy="256.2" r="255.8"/>
<g>
	<g>
		<path class="st1" d="M232.7,90c-17.6,0-32,14.4-32,32s14.4,32,32,32s32-14.4,32-32S250.3,90,232.7,90z"/>
	</g>
</g>
<g>
	<g>
		<path class="st1" d="M291.7,158.3c-3.7-2.8-8.1-4.3-12.8-4.3c-17.6,0-19.7,12.9-38.9,51.3l-40.2,40.2c-2.3,2.3-3.9,5-4.9,7.9
			c-2.1-0.2-4.3,0.2-6.3,1.3c-10.1,5.7-16.4,16.4-16.4,27.9v120.9c0,5.9,4.8,10.7,10.7,10.7c5.9,0,10.7-4.8,10.7-10.7V282.6
			c0-3.5,1.8-6.8,4.7-8.8c0.5,0.6,0.9,1.3,1.5,1.9c4.2,4.2,9.6,6.2,15,6.2c0,0.2,0.1,0.4,0.1,0.7V304c0,5.9,4.8,10.7,10.7,10.7
			c5.9,0,10.7-4.8,10.7-10.7v-21.3c0-6-1.2-8.3-2.9-10.3c10.4-10.3,40.6-40.3,42.4-43.2l11.5-18.7l7.6,20.6
			c3.6,9.6,5.4,19.6,5.4,29.7v131.6c0,11.8,9.6,21.3,21.3,21.3s21.3-9.6,21.3-21.3V260.6C342.9,220.6,323.7,182.3,291.7,158.3z"/>
	</g>
</g>
</svg>
