<?xml version="1.0" encoding="utf-8"?>
<!-- Generator: Adobe Illustrator 24.0.0, SVG Export Plug-In . SVG Version: 6.00 Build 0)  -->
<svg version="1.1" id="Capa_1" xmlns="http://www.w3.org/2000/svg" xmlns:xlink="http://www.w3.org/1999/xlink" x="0px" y="0px"
	 viewBox="0 0 512 512" style="enable-background:new 0 0 512 512;" xml:space="preserve">
<style type="text/css">
	.st0{fill:#FFFFFF;}
	.st1{fill:#151825;}
</style>
<circle class="st0" cx="256.2" cy="257.2" r="256"/>
<g>
	<g>
		<g>
			
				<ellipse transform="matrix(0.1602 -0.9871 0.9871 0.1602 97.9282 352.6474)" class="st1" cx="256.2" cy="118.8" rx="34.6" ry="34.6"/>
			<path class="st1" d="M314,165H198.6c-16,0-28.9,12.9-28.9,28.9v86.5c0,9.5,7.8,17.3,17.3,17.3s17.3-7.8,17.3-17.3v-74.9h11.5
				v207.6c0,9.5,7.8,17.3,17.3,17.3s17.3-7.8,17.3-17.3V297.5h11.5v115.4c0,9.5,7.8,17.3,17.3,17.3s17.3-7.8,17.3-17.3V205.3H308
				v74.9c0,9.5,7.8,17.3,17.3,17.3s17.3-7.8,17.3-17.3v-86.5C342.8,177.9,329.8,165,314,165z"/>
		</g>
	</g>
</g>
</svg>
