<?xml version="1.0" encoding="utf-8"?>
<!-- Generator: Adobe Illustrator 24.0.0, SVG Export Plug-In . SVG Version: 6.00 Build 0)  -->
<svg version="1.1" id="Layer_1" xmlns="http://www.w3.org/2000/svg" xmlns:xlink="http://www.w3.org/1999/xlink" x="0px" y="0px"
	 viewBox="0 0 512 512" style="enable-background:new 0 0 512 512;" xml:space="preserve">
<style type="text/css">
	.st0{fill:#FFFFFF;}
</style>
<g>
	<g>
		<path class="st0" d="M256,0C153.76,0,70.57,83.18,70.57,185.43c0,126.89,165.94,313.17,173,321.04c6.64,7.39,18.22,7.38,24.85,0
			c7.07-7.87,173-194.15,173-321.04C441.42,83.18,358.24,0,256,0z M256,469.73c-55.85-66.34-152.04-197.22-152.04-284.3
			c0-83.83,68.2-152.04,152.04-152.04s152.04,68.2,152.04,152.04C408.03,272.52,311.86,403.37,256,469.73z"/>
	</g>
</g>
<g>
	<g>
		<path class="st0" d="M256,92.13c-51.44,0-93.29,41.85-93.29,93.29s41.85,93.29,93.29,93.29s93.29-41.85,93.29-93.29
			S307.44,92.13,256,92.13z M256,245.33c-33.03,0-59.9-26.87-59.9-59.9s26.87-59.9,59.9-59.9s59.9,26.87,59.9,59.9
			S289.03,245.33,256,245.33z"/>
	</g>
</g>
</svg>
