<svg id="Capa_1" enable-background="new 0 0 512 512" height="512" viewBox="0 0 512 512" width="512" xmlns="http://www.w3.org/2000/svg"><g><path d="m512 0h-256l-20 256 20 256h256z" fill="#005fe1"/><path d="m0 0h256v512h-256z" fill="#2682ff"/><path d="m256 48.734-20 207.266 20 207.266c114.287 0 207.266-92.979 207.266-207.266s-92.979-207.266-207.266-207.266z" fill="#b4d2d7"/><path d="m48.734 256c0 114.287 92.979 207.266 207.266 207.266v-414.532c-114.287 0-207.266 92.979-207.266 207.266z" fill="#e1ebf0"/><path d="m256 78.734-20 177.266 20 177.266c97.744 0 177.266-79.521 177.266-177.266s-79.522-177.266-177.266-177.266z" fill="#e1ebf0"/><path d="m78.734 256c0 97.744 79.521 177.266 177.266 177.266v-354.532c-97.745 0-177.266 79.522-177.266 177.266z" fill="#fff5f5"/><path d="m287.893 224.107v-53.634h-31.893l-20 85.527 20 85.527h31.893v-53.634h53.634v-63.786z" fill="#c50048"/><path d="m224.107 170.473v53.634h-53.634v63.786h53.634v53.634h31.893v-171.054z" fill="#ff415b"/></g></svg>