<?xml version="1.0" encoding="utf-8"?>
<!-- Generator: Adobe Illustrator 24.0.0, SVG Export Plug-In . SVG Version: 6.00 Build 0)  -->
<svg version="1.1" id="Capa_1" xmlns="http://www.w3.org/2000/svg" xmlns:xlink="http://www.w3.org/1999/xlink" x="0px" y="0px"
	 viewBox="0 0 512 512" style="enable-background:new 0 0 512 512;" xml:space="preserve">
<style type="text/css">
	.st0{fill:#FAC7B7;}
	.st1{fill:#525252;}
	.st2{fill:#3F3F3F;}
	.st3{fill:#E56161;}
	.st4{fill:#D65858;}
	.st5{fill:#FFDECF;}
	.st6{fill:#FFD3C2;}
	.st7{fill:#BF4B4B;}
</style>
<g id="User_Male">
	<g id="Flat">
		<path class="st0" d="M256,416c-43,0.1-78.3-33.8-79.9-76.8l-0.3-6.9l16.2-2.9V248h128v81.3l16.2,2.9l-0.3,6.9
			C334.3,382.2,299,416.1,256,416L256,416z"/>
		<path class="st1" d="M131,136.7c-3.1-35.1,8.6-69.9,32.4-95.9c46.7-51.2,126.1-54.8,177.3-8c2.8,2.5,5.5,5.2,8,8
			c23.7,26,35.5,60.8,32.3,95.9H131z"/>
		<path class="st2" d="M348.7,40.9c-6.4-7-13.6-13.3-21.4-18.7c-5.5,52.7-41.1,97.4-91.2,114.6h145
			C384.1,101.6,372.4,66.9,348.7,40.9z"/>
		<path class="st3" d="M496,512H16v-83.9c0-38.7,27.6-71.8,65.7-78.7l110-20l0.4,9.2c1.4,35.3,31.2,62.8,66.5,61.4
			c33.3-1.3,60-28,61.4-61.4l0.4-9.2l110,20c38,6.9,65.7,40,65.7,78.7L496,512z"/>
		<path class="st4" d="M430.3,349.4l-11.2-2C357.1,437.2,253.4,496,136,496c-41,0-81.6-7.2-120-21.5V512h480v-83.9
			C496,389.4,468.4,356.3,430.3,349.4L430.3,349.4z"/>
		<path class="st5" d="M256,312c-46.3,0-87.7-29-103.5-72.5c-14.5-2.3-26.1-13.1-29.7-27.3l-4.6-18.2c-3.4-13.5,4-27.5,17.1-32.3
			l-2.3-11c-0.9-4.6-1.6-9.3-2.1-14l-0.2-1.9l0.7-1.8c1.7-4.2,3.9-8.1,6.7-11.7c15.7-20.3,44.3-25.3,66.5-12.2l11.8,7
			c23.9,16,55.1,16,79.1,0l11.8-7c22.1-13,50.8-8.1,66.5,12.2c2.8,3.6,5,7.5,6.7,11.7l0.7,1.8l-0.2,1.9c-0.4,4.7-1.1,9.4-2.1,14
			l-2.3,11c4.7,1.7,8.8,4.7,11.9,8.6c5.3,6.9,7.2,15.9,5,24.3l-4.4,17.6c-3.5,14.2-15.2,25-29.7,27.3C343.7,283,302.3,312,256,312z"
			/>
		<path class="st6" d="M388.6,170.3c-3-3.8-7-6.7-11.5-8.5C351.8,244.3,264.4,290.5,182,265.1c-7.4-2.3-14.6-5.1-21.6-8.4
			c30.3,52.8,97.6,71,150.4,40.7c22.6-12.9,39.8-33.4,48.7-57.9c14.5-2.3,26.1-13.1,29.7-27.3l4.4-17.6
			C395.8,186.2,394,177.2,388.6,170.3L388.6,170.3z"/>
		<path class="st7" d="M424,512c-4.4,0-8-3.6-8-8v-56c0-4.4,3.6-8,8-8s8,3.6,8,8v56C432,508.4,428.4,512,424,512z"/>
		<path class="st7" d="M88,512c-4.4,0-8-3.6-8-8v-56c0-4.4,3.6-8,8-8s8,3.6,8,8v56C96,508.4,92.4,512,88,512z"/>
	</g>
</g>
</svg>
