<?xml version="1.0" encoding="utf-8"?>
<!-- Generator: Adobe Illustrator 24.0.0, SVG Export Plug-In . SVG Version: 6.00 Build 0)  -->
<svg version="1.1" id="Capa_1" xmlns="http://www.w3.org/2000/svg" xmlns:xlink="http://www.w3.org/1999/xlink" x="0px" y="0px"
	 viewBox="0 0 512 512" style="enable-background:new 0 0 512 512;" xml:space="preserve">
<style type="text/css">
	.st0{fill:#FAC7B7;}
	.st1{fill:#525252;}
	.st2{fill:#3F3F3F;}
	.st3{fill:#E56161;}
	.st4{fill:#D65858;}
	.st5{fill:#FFDECF;}
	.st6{fill:#FFD3C2;}
	.st7{fill:#BF4B4B;}
	.st8{fill:#848484;}
	.st9{fill:#F29C9C;}
	.st10{fill:#FFF5F2;}
	.st11{fill:#EF2525;}
	.st12{fill:#6FE3FF;}
</style>
<g id="User_Male">
	<g id="Flat">
		<path class="st0" d="M233.1,380.8c-39.2,0.1-71.5-30.9-73-70.1l-0.3-6.3l14.8-2.7v-74.3h116.9v74.3l14.8,2.7l-0.3,6.3
			C304.7,349.9,272.4,381,233.1,380.8L233.1,380.8z"/>
		<path class="st1" d="M119,125.8c-2.9-32,7.9-63.8,29.5-87.5c42.7-46.7,115.2-50,161.9-7.3c2.5,2.3,5,4.8,7.3,7.3
			c21.7,23.7,32.4,55.5,29.5,87.5H119z"/>
		<path class="st2" d="M317.7,38.3c-5.8-6.4-12.4-12.2-19.5-17.1c-5,48.1-37.5,88.9-83.3,104.6h132.4
			C350.1,93.8,339.4,62,317.7,38.3z"/>
		<path class="st3" d="M452.3,468.5H14v-76.6c0-35.3,25.2-65.6,60-71.9l100.5-18.3l0.3,8.4c1.3,32.2,28.5,57.3,60.7,56
			c30.4-1.2,54.8-25.6,56-56l0.3-8.4L392.3,320c34.7,6.3,60,36.6,60,71.9V468.5z"/>
		<path class="st4" d="M392.3,320l-10.2-1.9c-56.7,82-151.3,135.7-258.5,135.7c-37.4,0-74.5-6.6-109.6-19.7v34.3h438.3v-76.6
			C452.3,356.6,427,326.3,392.3,320L392.3,320z"/>
		<path class="st5" d="M233.1,285.9c-42.3,0-80-26.4-94.5-66.2c-13.2-2.1-23.9-12-27.1-24.9l-4.2-16.7c-3.1-12.4,3.6-25.1,15.6-29.5
			l-2.1-10c-0.9-4.2-1.5-8.5-1.9-12.8l-0.2-1.7l0.7-1.6c1.5-3.8,3.6-7.4,6.1-10.7c14.3-18.6,40.5-23.1,60.7-11.2L197,107
			c21.9,14.6,50.3,14.6,72.2,0l10.8-6.4c20.2-11.9,46.4-7.4,60.7,11.2c2.5,3.3,4.6,6.9,6.1,10.7l0.6,1.6l-0.2,1.7
			c-0.4,4.3-1,8.5-1.9,12.8l-2.1,10c4.3,1.6,8.1,4.3,10.9,7.9c4.9,6.3,6.6,14.5,4.5,22.2l-4,16.1c-3.2,13-13.9,22.8-27.1,24.9
			C313.2,259.4,275.4,285.9,233.1,285.9z"/>
		<path class="st6" d="M354.2,156.5c-2.7-3.5-6.4-6.1-10.5-7.7c-23.2,75.2-103,117.4-178.2,94.2c-6.7-2.1-13.3-4.7-19.7-7.7
			c27.6,48.2,89.1,64.9,137.3,37.2c20.6-11.8,36.3-30.5,44.5-52.8c13.2-2.1,23.9-12,27.1-24.9l4-16.1
			C360.8,171,359.1,162.8,354.2,156.5L354.2,156.5z"/>
		<path class="st7" d="M386.5,468.5c-4,0-7.3-3.3-7.3-7.3v-51.1c0-4,3.3-7.3,7.3-7.3s7.3,3.3,7.3,7.3v51.1
			C393.8,465.2,390.6,468.5,386.5,468.5z"/>
		<path class="st7" d="M79.7,468.5c-4,0-7.3-3.3-7.3-7.3v-51.1c0-4,3.3-7.3,7.3-7.3s7.3,3.3,7.3,7.3v51.1
			C87,465.2,83.8,468.5,79.7,468.5z"/>
		<circle class="st8" cx="182" cy="44.8" r="14.6"/>
		<circle class="st8" cx="218.5" cy="59.4" r="11"/>
		<circle class="st9" cx="72.4" cy="355.3" r="14.6"/>
		<circle class="st9" cx="109" cy="369.9" r="11"/>
		<g>
			<circle class="st10" cx="174.7" cy="139.8" r="14.6"/>
			<circle class="st10" cx="211.2" cy="154.4" r="11"/>
		</g>
	</g>
</g>
<path class="st11" d="M417.8,300.4c26.4,0,39.5,25.2,39.5,47c0,55.8-79,107.2-79,107.2s-79-51.1-79-107.2c0-21.8,10.6-47,39.5-47
	c21.8,0,39.5,17.7,39.5,39.5C378.3,318,396,300.4,417.8,300.4L417.8,300.4z"/>
<path class="st12" d="M372,509.4c-73-3.3-129.5-65-126.2-138c0.4-8.6,1.6-17.1,3.7-25.3c1.7-6.9,3.9-13.7,6.7-20.2
	c28.5-67.2,106-98.7,173.2-70.2s98.7,106,70.2,173.2c-20.6,48.9-68.7,80.7-121.6,80.7C375.8,509.5,374,509.5,372,509.4z
	 M447.7,350.7c0-19.3-11.6-41.6-35-41.6c-19.3,0-35,15.7-35,35l0,0c0-19.3-15.7-35-35-35c-25.6,0-35,22.3-35,41.6
	c0,49.7,70,95,70,95S447.7,400.1,447.7,350.7z"/>
</svg>
