<?xml version="1.0" encoding="utf-8"?>
<!-- Generator: Adobe Illustrator 24.0.0, SVG Export Plug-In . SVG Version: 6.00 Build 0)  -->
<svg version="1.1" id="Capa_1" xmlns="http://www.w3.org/2000/svg" xmlns:xlink="http://www.w3.org/1999/xlink" x="0px" y="0px"
	 viewBox="0 0 512 512" style="enable-background:new 0 0 512 512;" xml:space="preserve">
<style type="text/css">
	.st0{fill:#FFFFFF;}
</style>
<g>
	<path class="st0" d="M478.45,205.51c-6.71-9.58-16.81-14.85-28.46-14.85h-13.34l-5.29-48.64c-1.71-15.92-0.64-17.58,4.66-22.81
		c2.05-2.01,4.35-4.02,6.8-6.15c12.8-11.16,30.34-26.44,32.62-63.92c0.19-3.19-1.15-6.28-3.61-8.31s-5.75-2.77-8.85-1.98
		c-5.34,1.36-10.24,2.68-14.56,3.85c-31.59,8.51-39.09,10.53-68.9-7.86C330.74,4.75,287.01-5.7,245.84,2.91
		c-34.96,7.31-60.38,26.74-80.81,42.36c-1.64,1.25-3.23,2.47-4.78,3.64c-16.62-4.6-33.46-2.48-47.95,6.15
		c-17.39,10.35-29.68,29.3-32.86,50.71c-4.73,31.94-5.07,44.26-5.09,84.89H62.01c-11.65,0-21.76,5.28-28.46,14.85
		c-5.5,7.86-8.53,18.43-8.53,29.78c0,25.86,16.06,53.34,45.83,53.34h6.54c5.83,26.73,19.88,54.7,40.6,80.33
		c-18.16,16.9-33.25,35.7-44.05,55.3c-1.71,3.1-1.65,6.88,0.15,9.93c1.8,3.04,5.07,4.9,8.6,4.9h0.03l27.1-0.08
		c2.74,0,7.37,2.47,8.85,4.73l14.9,22.67c5.15,7.86,16.09,13.76,25.47,13.76h0.1l27.12-0.08c2.73,0,7.34,2.47,8.82,4.73l14.88,22.68
		c1.85,2.82,5,4.51,8.36,4.51c0.13,0,0.26,0,0.39-0.01c3.51-0.14,6.68-2.1,8.37-5.17c6.53-11.86,13.23-23.73,19.7-35.21
		c4.89-8.67,9.64-17.08,14.18-25.24c12.9-0.6,26.15-3.55,41.29-9.15c12.77-4.75,25.47-11.21,37.76-19.18
		c4.63-3.01,5.95-9.2,2.94-13.83c-3.01-4.63-9.2-5.95-13.83-2.94c-11.06,7.18-22.45,12.97-33.83,17.21
		c-8.11,3.01-15.54,5.12-22.57,6.43c22.82-42.64,37.17-76.72,30.77-99.28c-2.4-8.45-7.5-14.87-15.15-19.1
		c-21.03-11.58-61.38-4.97-105.29,17.24c-17.9,9.05-34.72,19.93-49.91,32.11c-24.42-30.48-38.8-65.12-38.8-94.19v-56.77
		c23.82-22.59,40.97-30.29,67.16-37.66c13.76-3.85,20.21-1.93,33.05,1.88c3.22,0.96,6.86,2.04,10.94,3.1
		c87.22,22.79,122.09,26.84,191.57,34.9c6.54,0.76,13.4,1.56,20.64,2.41v52.14c0,24.34-9.96,52.6-28.04,79.55
		c-3.08,4.59-1.85,10.8,2.73,13.87c1.71,1.15,3.64,1.7,5.56,1.7c3.22,0,6.38-1.55,8.31-4.43c14.05-20.95,23.72-42.85,28.33-63.74
		h6.56c29.77,0,45.83-27.49,45.83-53.35C486.98,223.95,483.95,213.37,478.45,205.51L478.45,205.51z M192.08,341.61
		c40.56-20.51,74.28-24.36,86.62-17.57c2.92,1.61,4.64,3.78,5.57,7.04c6.32,22.25-24.8,77.38-54.88,130.7
		c-3.87,6.85-7.82,13.85-11.76,20.9l-5.8-8.85c-5.14-7.84-16.12-13.76-25.57-13.76l-27.17,0.08c-0.01,0-0.01,0-0.02,0
		c-2.7,0-7.27-2.46-8.75-4.73l-14.9-22.67c-5.14-7.84-16.13-13.76-25.6-13.76l-9.12,0.03C121.8,388.39,154.28,360.73,192.08,341.61
		L192.08,341.61z M70.85,268.64c-18.96,0-25.84-19.94-25.84-33.35c0-7.17,1.79-13.85,4.92-18.31c2.98-4.26,6.93-6.32,12.08-6.32
		h12.34v51.03c0,2.3,0.07,4.62,0.21,6.95L70.85,268.64z M399.36,187.27c-68.55-7.96-102.96-11.95-188.82-34.39
		c-3.76-0.98-7.09-1.97-10.3-2.93c-8.65-2.57-16.17-4.8-25.3-4.8c-5.5,0-11.58,0.81-18.84,2.84c-23.67,6.66-41.37,13.89-61.73,30.28
		c0.12-30.7,0.83-42.38,4.85-69.58c2.31-15.52,11.02-29.14,23.3-36.45c7.63-4.54,20.09-8.71,36.17-2.85
		c3.16,1.15,6.67,0.64,9.37-1.35c2.94-2.18,5.94-4.47,9.11-6.89c38.99-29.81,92.39-70.63,191.86-9.31
		c37.15,22.92,52.02,18.93,84.57,10.16c-4.14,18.74-13.8,27.16-23.91,35.97c-2.56,2.23-5.21,4.54-7.69,6.98
		c-12,11.84-12.42,21.48-10.51,39.21l4.91,45.09C410.46,188.56,404.8,187.91,399.36,187.27L399.36,187.27z M441.15,268.64h-3.69
		c0.15-2.34,0.23-4.66,0.23-6.95v-51.03h12.31c5.15,0,9.1,2.07,12.08,6.32c3.12,4.46,4.92,11.14,4.92,18.31
		C466.98,248.7,460.1,268.64,441.15,268.64L441.15,268.64z"/>
	<path class="st0" d="M364.09,289.26c2.56-4.89,0.68-10.93-4.21-13.5l-24.95-13.08l24.95-13.08c4.89-2.57,6.78-8.61,4.21-13.5
		c-2.57-4.89-8.61-6.78-13.5-4.21l-41.84,21.94c-3.29,1.73-5.36,5.14-5.36,8.85s2.06,7.13,5.36,8.86l41.84,21.94
		c1.48,0.78,3.07,1.15,4.64,1.15C358.83,294.62,362.3,292.67,364.09,289.26L364.09,289.26z"/>
	<path class="st0" d="M147.91,289.26c1.79,3.41,5.26,5.36,8.87,5.36c1.56,0,3.15-0.37,4.63-1.15l41.84-21.94
		c3.29-1.73,5.35-5.14,5.35-8.86s-2.06-7.13-5.35-8.85l-41.84-21.94c-4.89-2.57-10.93-0.68-13.5,4.21
		c-2.56,4.89-0.68,10.93,4.21,13.5l24.95,13.08l-24.95,13.08C147.23,278.33,145.35,284.37,147.91,289.26z"/>
	<path class="st0" d="M188.52,391.25c1.81,0,3.64-0.49,5.28-1.52c18.32-11.43,37.64-19.83,55.87-24.28
		c5.37-1.31,8.65-6.72,7.34-12.09c-1.31-5.36-6.72-8.65-12.09-7.34c-20.26,4.95-41.6,14.19-61.71,26.74
		c-4.68,2.92-6.11,9.09-3.19,13.78C181.93,389.58,185.19,391.25,188.52,391.25L188.52,391.25z"/>
	<path class="st0" d="M361.97,374.63l-0.03,0.03c-3.9,3.9-3.89,10.22,0.02,14.13c1.95,1.95,4.51,2.92,7.06,2.92
		c2.57,0,5.14-0.98,7.09-2.94c3.9-3.9,3.9-10.24,0-14.14C372.2,370.73,365.87,370.73,361.97,374.63z"/>
</g>
</svg>
