<?xml version="1.0" encoding="utf-8"?>
<!-- Generator: Adobe Illustrator 24.0.0, SVG Export Plug-In . SVG Version: 6.00 Build 0)  -->
<svg version="1.1" id="Capa_1" xmlns="http://www.w3.org/2000/svg" xmlns:xlink="http://www.w3.org/1999/xlink" x="0px" y="0px"
	 viewBox="0 0 139.73 150.85" style="enable-background:new 0 0 139.73 150.85;" xml:space="preserve">
<style type="text/css">
	.st0{clip-path:url(#SVGID_2_);fill:#95C11F;}
	.st1{opacity:0.43;clip-path:url(#SVGID_2_);fill:#95C11F;}
	.st2{fill:#95C11F;}
	.st3{opacity:0.43;fill:#95C11F;}
	.st4{clip-path:url(#SVGID_4_);fill:#95C11F;}
	.st5{opacity:0.43;clip-path:url(#SVGID_4_);fill:#95C11F;}
	.st6{clip-path:url(#SVGID_6_);fill:#95C11F;}
	.st7{opacity:0.43;clip-path:url(#SVGID_6_);fill:#95C11F;}
	.st8{clip-path:url(#SVGID_8_);fill:#95C11F;}
	.st9{opacity:0.43;clip-path:url(#SVGID_8_);fill:#95C11F;}
	.st10{clip-path:url(#SVGID_10_);fill:#95C11F;}
	.st11{opacity:0.43;clip-path:url(#SVGID_10_);fill:#95C11F;}
	.st12{clip-path:url(#SVGID_12_);fill:#95C11F;}
	.st13{opacity:0.43;clip-path:url(#SVGID_12_);fill:#95C11F;}
	.st14{clip-path:url(#SVGID_14_);fill:#95C11F;}
	.st15{opacity:0.43;clip-path:url(#SVGID_14_);fill:#95C11F;}
	.st16{clip-path:url(#SVGID_16_);fill:#95C11F;}
	.st17{opacity:0.43;clip-path:url(#SVGID_16_);fill:#95C11F;}
	.st18{clip-path:url(#SVGID_18_);fill:#95C11F;}
	.st19{opacity:0.43;clip-path:url(#SVGID_18_);fill:#95C11F;}
	.st20{clip-path:url(#SVGID_20_);fill:#95C11F;}
	.st21{opacity:0.43;clip-path:url(#SVGID_20_);fill:#95C11F;}
	.st22{clip-path:url(#SVGID_22_);fill:#95C11F;}
	.st23{opacity:0.43;clip-path:url(#SVGID_22_);fill:#95C11F;}
	.st24{clip-path:url(#SVGID_24_);fill:#95C11F;}
	.st25{opacity:0.43;clip-path:url(#SVGID_24_);fill:#95C11F;}
	.st26{opacity:0.33;fill:#95C11F;}
</style>
<g>
	<g>
		<g>
			<defs>
				<path id="SVGID_1_" d="M28.19,44.83c-2.01-2.11-1.69-5.63,0.75-7.67c2.09-1.75,5.1-1.75,6.95-0.01
					c1.46,1.38,1.85,3.45,1.21,5.31c-0.27,0.78-0.12,1.62,0.42,2.19c0,0,6.88,7.27,8.8,6.89c1.92-0.38-4.77,4.53-3.85,3.65
					c0.93-0.88-6.92-8.41-6.92-8.41c-0.61-0.64-1.53-0.87-2.43-0.64C31.36,46.61,29.47,46.17,28.19,44.83z"/>
			</defs>
			<use xlink:href="#SVGID_1_"  style="overflow:visible;fill:#95C11F;"/>
			<clipPath id="SVGID_2_">
				<use xlink:href="#SVGID_1_"  style="overflow:visible;"/>
			</clipPath>
			<path class="st0" d="M28.19,44.83c-2.01-2.11-1.69-5.63,0.75-7.67c2.09-1.75,5.1-1.75,6.95-0.01c1.46,1.38,1.85,3.45,1.21,5.31
				c-0.27,0.78-0.12,1.62,0.42,2.19c0,0,6.88,7.27,8.8,6.89c1.92-0.38-4.77,4.53-3.85,3.65c0.93-0.88-6.92-8.41-6.92-8.41
				c-0.61-0.64-1.53-0.87-2.43-0.64C31.36,46.61,29.47,46.17,28.19,44.83z"/>
			<path class="st1" d="M27.67,36.88c0.25,0,5.01-1.01,6.75,5.26c0.43,1.55,1.25,2.94,2.35,4.1L46,55.97l4.28-6.94L39.35,33.4
				l-7.62-1.51L27.67,36.88z"/>
		</g>
		
			<ellipse transform="matrix(0.7983 -0.6022 0.6022 0.7983 -33.0891 57.4437)" class="st2" cx="69.22" cy="78.12" rx="36.59" ry="36.59"/>
		<path class="st3" d="M80.74,43.39c5.83,6.48,9.39,15.06,9.39,24.47c0,20.21-16.38,36.59-36.59,36.59c-4.03,0-7.9-0.65-11.52-1.85
			c6.7,7.44,16.4,12.12,27.2,12.12c20.21,0,36.59-16.38,36.59-36.59C105.81,61.94,95.3,48.22,80.74,43.39z"/>
		<g>
			<defs>
				<path id="SVGID_3_" d="M71.63,18.66c0.83-3.82,4.7-6.19,8.5-5.09c3.25,0.94,5.31,4.24,4.76,7.59c-0.44,2.66-2.33,4.68-4.7,5.41
					c-1,0.31-1.77,1.12-1.99,2.15c0,0-2.87,13.13-1.16,14.94c1.7,1.81-7.97-1.73-6.43-1.39c1.55,0.34,4.02-14.05,4.02-14.05
					c0.25-1.16-0.14-2.35-1-3.15C71.94,23.49,71.11,21.09,71.63,18.66z"/>
			</defs>
			<use xlink:href="#SVGID_3_"  style="overflow:visible;fill:#95C11F;"/>
			<clipPath id="SVGID_4_">
				<use xlink:href="#SVGID_3_"  style="overflow:visible;"/>
			</clipPath>
			<path class="st4" d="M71.63,18.66c0.83-3.82,4.7-6.19,8.5-5.09c3.25,0.94,5.31,4.24,4.76,7.59c-0.44,2.66-2.33,4.68-4.7,5.41
				c-1,0.31-1.77,1.12-1.99,2.15c0,0-2.87,13.13-1.16,14.94c1.7,1.81-7.97-1.73-6.43-1.39c1.55,0.34,4.02-14.05,4.02-14.05
				c0.25-1.16-0.14-2.35-1-3.15C71.94,23.49,71.11,21.09,71.63,18.66z"/>
			<path class="st5" d="M79.55,11.96c0.17,0.27,4.48,4.71-0.87,11.44c-1.32,1.67-2.21,3.64-2.66,5.72l-3.82,17.6l10.14-0.67l8.81-24
				l-3.63-9.51L79.55,11.96z"/>
		</g>
		<g>
			<defs>
				<path id="SVGID_5_" d="M41.6,28.4c-1.22-3.71,1-7.75,4.92-8.75c3.36-0.86,6.87,0.92,8.09,4.09c0.98,2.52,0.33,5.23-1.39,7.07
					c-0.73,0.78-1,1.87-0.67,2.87c0,0,4.17,12.77,6.61,13.46c2.43,0.69-7.94,2.61-6.4,2.1c1.54-0.51-3.63-14.16-3.63-14.16
					c-0.37-1.12-1.32-1.95-2.49-2.2C44.35,32.4,42.38,30.76,41.6,28.4z"/>
			</defs>
			<use xlink:href="#SVGID_5_"  style="overflow:visible;fill:#95C11F;"/>
			<clipPath id="SVGID_6_">
				<use xlink:href="#SVGID_5_"  style="overflow:visible;"/>
			</clipPath>
			<path class="st6" d="M41.6,28.4c-1.22-3.71,1-7.75,4.92-8.75c3.36-0.86,6.87,0.92,8.09,4.09c0.98,2.52,0.33,5.23-1.39,7.07
				c-0.73,0.78-1,1.87-0.67,2.87c0,0,4.17,12.77,6.61,13.46c2.43,0.69-7.94,2.61-6.4,2.1c1.54-0.51-3.63-14.16-3.63-14.16
				c-0.37-1.12-1.32-1.95-2.49-2.2C44.35,32.4,42.38,30.76,41.6,28.4z"/>
			<path class="st7" d="M45.18,18.57c0.29,0.14,6.37,1.75,5.08,10.29c-0.32,2.11-0.1,4.27,0.57,6.29l5.62,17.11l8.64-5.78
				L60.62,21.3l-8.08-6.32L45.18,18.57z"/>
		</g>
		<g>
			<defs>
				<path id="SVGID_7_" d="M112.7,48.75c3.34-1.25,7.08,0.57,8.11,4.05c0.88,2.98-0.62,6.2-3.47,7.43
					c-2.26,0.98-4.75,0.51-6.48-0.95c-0.73-0.62-1.74-0.82-2.64-0.48c0,0-11.49,4.28-12.04,6.49c-0.55,2.21-2.62-7.02-2.12-5.66
					c0.51,1.36,12.77-3.84,12.77-3.84c1.01-0.38,1.73-1.27,1.92-2.33C109.14,51.38,110.57,49.55,112.7,48.75z"/>
			</defs>
			<use xlink:href="#SVGID_7_"  style="overflow:visible;fill:#95C11F;"/>
			<clipPath id="SVGID_8_">
				<use xlink:href="#SVGID_7_"  style="overflow:visible;"/>
			</clipPath>
			<path class="st8" d="M112.7,48.75c3.34-1.25,7.08,0.57,8.11,4.05c0.88,2.98-0.62,6.2-3.47,7.43c-2.26,0.98-4.75,0.51-6.48-0.95
				c-0.73-0.62-1.74-0.82-2.64-0.48c0,0-11.49,4.28-12.04,6.49c-0.55,2.21-2.62-7.02-2.12-5.66c0.51,1.36,12.77-3.84,12.77-3.84
				c1.01-0.38,1.73-1.27,1.92-2.33C109.14,51.38,110.57,49.55,112.7,48.75z"/>
			<path class="st9" d="M121.76,51.56c-0.12,0.27-1.39,5.79-9.2,4.98c-1.59-0.16-3.34-0.23-4.93,0.13
				c-1.07,0.24-2.15,0.43-3.24,0.55l-14.07,1.61l6.67,11.74l22.78-5.06l5.5-7.51L121.76,51.56z"/>
		</g>
		<g>
			<defs>
				<path id="SVGID_9_" d="M110.42,124.39c2.13,2.86,1.43,6.96-1.63,8.92c-2.61,1.68-6.12,1.13-8.11-1.26
					c-1.57-1.9-1.82-4.42-0.89-6.49c0.39-0.88,0.3-1.89-0.27-2.66c0,0-13.58-19.41-15.86-19.32c-2.28,0.09,6.01-4.48,4.84-3.61
					c-1.17,0.87,13.52,20.76,13.52,20.76c0.64,0.87,1.7,1.31,2.77,1.2C106.9,121.71,109.07,122.57,110.42,124.39z"/>
			</defs>
			<use xlink:href="#SVGID_9_"  style="overflow:visible;fill:#95C11F;"/>
			<clipPath id="SVGID_10_">
				<use xlink:href="#SVGID_9_"  style="overflow:visible;"/>
			</clipPath>
			<path class="st10" d="M110.42,124.39c2.13,2.86,1.43,6.96-1.63,8.92c-2.61,1.68-6.12,1.13-8.11-1.26
				c-1.57-1.9-1.82-4.42-0.89-6.49c0.39-0.88,0.3-1.89-0.27-2.66c0,0-13.58-19.41-15.86-19.32c-2.28,0.09,6.01-4.48,4.84-3.61
				c-1.17,0.87,13.52,20.76,13.52,20.76c0.64,0.87,1.7,1.31,2.77,1.2C106.9,121.71,109.07,122.57,110.42,124.39z"/>
			<path class="st11" d="M110.25,133.87c-0.29-0.04-5.95,0.28-7.35-7.45c-0.29-1.57-0.71-3.28-1.5-4.7
				c-0.53-0.96-1.01-1.95-1.44-2.96L88.22,96.13l-9.05,10.24l17.12,29.47l8.75,3.18L110.25,133.87z"/>
		</g>
		<g>
			<defs>
				<path id="SVGID_11_" d="M119.41,77.72c3.43,0.98,5.36,4.66,4.13,8.08c-1.05,2.92-4.18,4.62-7.2,3.92
					c-2.4-0.55-4.13-2.4-4.65-4.61c-0.22-0.93-0.91-1.69-1.84-1.95c0,0-11.79-3.38-13.54-1.92c-1.75,1.46,2.05-7.21,1.65-5.81
					c-0.4,1.4,12.56,4.49,12.56,4.49c1.04,0.3,2.15,0.01,2.93-0.73C114.99,77.73,117.23,77.1,119.41,77.72z"/>
			</defs>
			<use xlink:href="#SVGID_11_"  style="overflow:visible;fill:#95C11F;"/>
			<clipPath id="SVGID_12_">
				<use xlink:href="#SVGID_11_"  style="overflow:visible;"/>
			</clipPath>
			<path class="st12" d="M119.41,77.72c3.43,0.98,5.36,4.66,4.13,8.08c-1.05,2.92-4.18,4.62-7.2,3.92c-2.4-0.55-4.13-2.4-4.65-4.61
				c-0.22-0.93-0.91-1.69-1.84-1.95c0,0-11.79-3.38-13.54-1.92c-1.75,1.46,2.05-7.21,1.65-5.81c-0.4,1.4,12.56,4.49,12.56,4.49
				c1.04,0.3,2.15,0.01,2.93-0.73C114.99,77.73,117.23,77.1,119.41,77.72z"/>
			<path class="st13" d="M125.04,85.35c-0.26,0.14-4.56,3.83-10.37-1.45c-1.18-1.07-2.56-2.17-4.05-2.82
				c-1-0.44-1.99-0.93-2.94-1.48l-12.28-7.05l-1.6,13.41l21.34,9.44l8.88-2.78L125.04,85.35z"/>
		</g>
		<g>
			<defs>
				<path id="SVGID_13_" d="M74.62,132.06c-0.31,3.55-3.57,6.14-7.16,5.57c-3.07-0.49-5.32-3.23-5.21-6.34
					c0.09-2.46,1.59-4.5,3.66-5.44c0.88-0.39,1.49-1.21,1.57-2.17c0,0,1.1-12.21-0.66-13.66c-1.76-1.45,7.46,0.66,6.02,0.53
					c-1.45-0.13-2.04,13.18-2.04,13.18c-0.09,1.07,0.4,2.11,1.27,2.74C73.78,127.72,74.82,129.8,74.62,132.06z"/>
			</defs>
			<use xlink:href="#SVGID_13_"  style="overflow:visible;fill:#95C11F;"/>
			<clipPath id="SVGID_14_">
				<use xlink:href="#SVGID_13_"  style="overflow:visible;"/>
			</clipPath>
			<path class="st14" d="M74.62,132.06c-0.31,3.55-3.57,6.14-7.16,5.57c-3.07-0.49-5.32-3.23-5.21-6.34
				c0.09-2.46,1.59-4.5,3.66-5.44c0.88-0.39,1.49-1.21,1.57-2.17c0,0,1.1-12.21-0.66-13.66c-1.76-1.45,7.46,0.66,6.02,0.53
				c-1.45-0.13-2.04,13.18-2.04,13.18c-0.09,1.07,0.4,2.11,1.27,2.74C73.78,127.72,74.82,129.8,74.62,132.06z"/>
			<path class="st15" d="M68.18,139.02c-0.19-0.22-4.62-3.75-0.53-10.45c0.83-1.36,1.65-2.92,2.01-4.5c0.24-1.07,0.54-2.13,0.9-3.16
				l4.61-13.39l-13.47,0.96l-5.26,22.73l4.41,8.2L68.18,139.02z"/>
		</g>
		<g>
			<defs>
				<path id="SVGID_15_" d="M93,34.32c1.34-1.99,4.11-2.46,6.04-0.95c1.65,1.29,2.08,3.64,1.01,5.43c-0.86,1.42-2.4,2.14-3.93,2.01
					c-0.65-0.05-1.27,0.23-1.63,0.77c0,0-4.63,6.84-4.06,8.27c0.57,1.43-4.19-2.82-3.37-2.28c0.81,0.55,5.5-7.11,5.5-7.11
					c0.41-0.6,0.45-1.37,0.14-2.03C92.08,37.16,92.14,35.59,93,34.32z"/>
			</defs>
			<use xlink:href="#SVGID_15_"  style="overflow:visible;fill:#95C11F;"/>
			<clipPath id="SVGID_16_">
				<use xlink:href="#SVGID_15_"  style="overflow:visible;"/>
			</clipPath>
			<path class="st16" d="M93,34.32c1.34-1.99,4.11-2.46,6.04-0.95c1.65,1.29,2.08,3.64,1.01,5.43c-0.86,1.42-2.4,2.14-3.93,2.01
				c-0.65-0.05-1.27,0.23-1.63,0.77c0,0-4.63,6.84-4.06,8.27c0.57,1.43-4.19-2.82-3.37-2.28c0.81,0.55,5.5-7.11,5.5-7.11
				c0.41-0.6,0.45-1.37,0.14-2.03C92.08,37.16,92.14,35.59,93,34.32z"/>
			<path class="st17" d="M99.06,32.32c0.04,0.19,1.5,3.72-3.1,6.33c-0.93,0.53-1.92,1.18-2.65,2c-0.49,0.55-1.01,1.08-1.56,1.57
				l-7.09,6.39l8.25,3.83l10.51-11.69l0.08-6.27L99.06,32.32z"/>
		</g>
		<g>
			<defs>
				<path id="SVGID_17_" d="M115.25,93.88c2.14,1.1,2.92,3.8,1.64,5.89c-1.09,1.79-3.38,2.49-5.28,1.63
					c-1.51-0.69-2.4-2.14-2.45-3.67c-0.02-0.65-0.38-1.24-0.95-1.53c0,0-7.33-3.81-8.68-3.08c-1.35,0.73,2.32-4.48,1.87-3.61
					c-0.45,0.87,7.7,4.64,7.7,4.64c0.65,0.33,1.42,0.29,2.03-0.09C112.33,93.3,113.9,93.18,115.25,93.88z"/>
			</defs>
			<use xlink:href="#SVGID_17_"  style="overflow:visible;fill:#95C11F;"/>
			<clipPath id="SVGID_18_">
				<use xlink:href="#SVGID_17_"  style="overflow:visible;"/>
			</clipPath>
			<path class="st18" d="M115.25,93.88c2.14,1.1,2.92,3.8,1.64,5.89c-1.09,1.79-3.38,2.49-5.28,1.63c-1.51-0.69-2.4-2.14-2.45-3.67
				c-0.02-0.65-0.38-1.24-0.95-1.53c0,0-7.33-3.81-8.68-3.08c-1.35,0.73,2.32-4.48,1.87-3.61c-0.45,0.87,7.7,4.64,7.7,4.64
				c0.65,0.33,1.42,0.29,2.03-0.09C112.33,93.3,113.9,93.18,115.25,93.88z"/>
			<path class="st19" d="M117.95,99.68c-0.19,0.06-3.52,1.92-6.65-2.34c-0.64-0.87-1.4-1.77-2.29-2.4c-0.6-0.43-1.19-0.88-1.74-1.37
				l-7.17-6.3l-2.85,8.64l12.83,9.09l6.24-0.65L117.95,99.68z"/>
		</g>
		<g>
			<defs>
				<path id="SVGID_19_" d="M43.13,119.99c-1.74,1.66-4.54,1.51-6.1-0.37c-1.33-1.61-1.25-4.01,0.19-5.52
					c1.14-1.2,2.81-1.57,4.27-1.12c0.62,0.19,1.29,0.05,1.76-0.4c0,0,5.99-5.68,5.75-7.2c-0.25-1.52,3.48,3.66,2.8,2.95
					c-0.67-0.71-6.9,5.75-6.9,5.75c-0.53,0.5-0.74,1.24-0.58,1.95C44.64,117.43,44.24,118.94,43.13,119.99z"/>
			</defs>
			<use xlink:href="#SVGID_19_"  style="overflow:visible;fill:#95C11F;"/>
			<clipPath id="SVGID_20_">
				<use xlink:href="#SVGID_19_"  style="overflow:visible;"/>
			</clipPath>
			<path class="st20" d="M43.13,119.99c-1.74,1.66-4.54,1.51-6.1-0.37c-1.33-1.61-1.25-4.01,0.19-5.52c1.14-1.2,2.81-1.57,4.27-1.12
				c0.62,0.19,1.29,0.05,1.76-0.4c0,0,5.99-5.68,5.75-7.2c-0.25-1.52,3.48,3.66,2.8,2.95c-0.67-0.71-6.9,5.75-6.9,5.75
				c-0.53,0.5-0.74,1.24-0.58,1.95C44.64,117.43,44.24,118.94,43.13,119.99z"/>
			<path class="st21" d="M36.78,120.65c0-0.2-0.66-3.96,4.39-5.52c1.03-0.32,2.13-0.74,3.02-1.38c0.6-0.43,1.22-0.83,1.86-1.2
				l8.3-4.71l-7.24-5.52l-12.78,9.15l-1.42,6.11L36.78,120.65z"/>
		</g>
		<g>
			<defs>
				<path id="SVGID_21_" d="M20.05,64.39c-2.51-0.97-3.74-3.77-2.63-6.13c0.95-2.02,3.38-3,5.61-2.27c1.76,0.58,2.95,2.05,3.22,3.68
					c0.11,0.69,0.59,1.28,1.26,1.55c0,0,8.62,3.34,10.01,2.43c1.39-0.91-1.94,5.03-1.56,4.05c0.38-0.97-9.14-4.2-9.14-4.2
					c-0.76-0.29-1.6-0.17-2.23,0.3C23.36,64.73,21.65,65.01,20.05,64.39z"/>
			</defs>
			<use xlink:href="#SVGID_21_"  style="overflow:visible;fill:#95C11F;"/>
			<clipPath id="SVGID_22_">
				<use xlink:href="#SVGID_21_"  style="overflow:visible;"/>
			</clipPath>
			<path class="st22" d="M20.05,64.39c-2.51-0.97-3.74-3.77-2.63-6.13c0.95-2.02,3.38-3,5.61-2.27c1.76,0.58,2.95,2.05,3.22,3.68
				c0.11,0.69,0.59,1.28,1.26,1.55c0,0,8.62,3.34,10.01,2.43c1.39-0.91-1.94,5.03-1.56,4.05c0.38-0.97-9.14-4.2-9.14-4.2
				c-0.76-0.29-1.6-0.17-2.23,0.3C23.36,64.73,21.65,65.01,20.05,64.39z"/>
			<path class="st23" d="M16.27,58.47c0.2-0.08,3.62-2.41,7.67,1.84c1,1.05,2.25,1.85,3.62,2.38l11.56,4.46l0.53-6.71L24.23,52
				l-6.79,1.32L16.27,58.47z"/>
		</g>
		<g>
			<defs>
				<path id="SVGID_23_" d="M20.58,92.14c-2.59,0.73-5.22-0.64-5.71-3.05c-0.41-2.06,0.97-4.2,3.19-4.94
					c1.76-0.59,3.57-0.18,4.74,0.88c0.49,0.45,1.22,0.62,1.92,0.42c0,0,8.9-2.5,9.49-3.99c0.59-1.49,1.38,4.88,1.11,3.93
					c-0.27-0.95-9.82,2.16-9.82,2.16c-0.78,0.22-1.39,0.8-1.62,1.52C23.44,90.48,22.23,91.68,20.58,92.14z"/>
			</defs>
			<use xlink:href="#SVGID_23_"  style="overflow:visible;fill:#95C11F;"/>
			<clipPath id="SVGID_24_">
				<use xlink:href="#SVGID_23_"  style="overflow:visible;"/>
			</clipPath>
			<path class="st24" d="M20.58,92.14c-2.59,0.73-5.22-0.64-5.71-3.05c-0.41-2.06,0.97-4.2,3.19-4.94c1.76-0.59,3.57-0.18,4.74,0.88
				c0.49,0.45,1.22,0.62,1.92,0.42c0,0,8.9-2.5,9.49-3.99c0.59-1.49,1.38,4.88,1.11,3.93c-0.27-0.95-9.82,2.16-9.82,2.16
				c-0.78,0.22-1.39,0.8-1.62,1.52C23.44,90.48,22.23,91.68,20.58,92.14z"/>
			<path class="st25" d="M14.07,89.91c0.11-0.18,1.51-3.89,7.26-3.07c1.42,0.21,2.9,0.08,4.31-0.32l11.93-3.37l-3.5-5.31L16.7,80.47
				L12,85.39L14.07,89.91z"/>
		</g>
	</g>
	<path class="st26" d="M107.23,57.75c-2.07,0.33-3.7,1.74-4.41,3.55c-0.37,0.93-1.18,1.6-2.16,1.76c0,0-2.03,0.42-4.44,0.82
		c-0.07-0.16-0.13-0.32-0.21-0.48c-2.34-5.01-5.76-9.17-9.85-12.34c2.05-2.46,4.32-4.77,4.32-4.77c0.62-0.63,1.54-0.86,2.39-0.63
		c2.02,0.55,4.29-0.03,5.8-1.74c1.9-2.15,1.9-5.43-0.01-7.57c-2.23-2.51-6.07-2.57-8.37-0.22c-1.47,1.5-1.94,3.59-1.44,5.48
		c0.26,0.96,0,1.99-0.7,2.7c0,0-2.33,2.59-4.65,4.87c-3.61-2.28-7.61-3.86-11.79-4.66c-0.23-2.42,0.54-7.26,0.54-7.26
		c0.09-0.59,0.51-1.07,1.07-1.28c1.33-0.49,2.34-1.7,2.5-3.22c0.2-1.92-1.08-3.72-2.97-4.15c-2.2-0.5-4.33,0.96-4.68,3.16
		c-0.22,1.39,0.34,2.73,1.35,3.57c0.52,0.43,0.78,1.09,0.67,1.75c0,0-0.54,4.81-1.2,7.02c-3.78-0.41-7.65-0.18-11.46,0.74
		c-1.92-3.07-3.94-11.97-3.94-11.97c-0.22-0.95,0.11-1.93,0.83-2.58c1.69-1.54,2.49-3.97,1.81-6.37c-0.85-3.02-3.86-4.97-6.95-4.49
		c-3.61,0.56-5.92,4.06-5.12,7.58c0.51,2.24,2.15,3.92,4.17,4.58c1.03,0.34,1.82,1.18,2.07,2.24c0,0,2.62,9.57,2.46,12.49
		c-0.59,0.24-1.18,0.49-1.77,0.76c-3.72,1.74-6.97,4.06-9.69,6.82c-3.26-2.55-7.31-6.86-7.31-6.86c-0.67-0.71-0.87-1.73-0.56-2.66
		c0.72-2.22,0.2-4.74-1.6-6.46c-2.27-2.17-5.9-2.29-8.37-0.26c-2.89,2.37-3.17,6.61-0.7,9.24c1.57,1.67,3.86,2.27,5.98,1.78
		c1.08-0.25,2.2,0.07,2.95,0.86c0,0,4.43,4.31,6.95,7.41c-1.82,2.34-3.32,4.9-4.46,7.61c-2.94-0.31-8.47-2.49-8.47-2.49
		c-0.67-0.26-1.13-0.91-1.21-1.67c-0.19-1.8-1.32-3.39-3.09-3.97c-2.22-0.73-4.74,0.45-5.81,2.73c-1.25,2.66-0.13,5.73,2.37,6.71
		c1.59,0.62,3.34,0.25,4.64-0.83c0.66-0.55,1.53-0.72,2.28-0.42c0,0,5.7,1.93,8.07,3.32c-1.05,3.48-1.54,7.13-1.42,10.81
		c-2.69,0.75-7.73,1.1-7.73,1.1c-0.67,0.05-1.3-0.27-1.66-0.8c-0.86-1.26-2.43-2.02-4.13-1.82c-2.15,0.25-3.79,2.03-3.8,4.09
		c-0.01,2.41,2.12,4.27,4.6,4.1c1.58-0.11,2.9-1.01,3.56-2.27c0.34-0.64,1-1.07,1.75-1.12c0,0,4.96-0.55,7.63-0.46
		c0.41,3.52,1.37,7.03,2.95,10.42c0.58,1.24,1.23,2.43,1.94,3.56c-1.65,2.19-5.68,5.66-5.68,5.66c-0.51,0.44-1.18,0.58-1.77,0.4
		c-1.39-0.43-3.07-0.06-4.31,1.12c-1.57,1.49-1.89,3.82-0.74,5.38c1.35,1.82,4.09,1.94,5.97,0.32c1.19-1.03,1.74-2.51,1.57-3.86
		c-0.09-0.69,0.19-1.41,0.76-1.9c0,0,3.53-3.3,5.72-4.88c5.12,6.93,12.62,11.49,20.79,13.06c-0.57,2.48-1.88,5.81-1.88,5.81
		c-0.22,0.56-0.72,0.94-1.32,1.02c-1.4,0.19-2.65,1.15-3.13,2.61c-0.61,1.83,0.26,3.87,2,4.69c2.04,0.97,4.44-0.01,5.25-2.08
		c0.51-1.31,0.26-2.74-0.55-3.78c-0.41-0.53-0.53-1.23-0.28-1.86c0,0,1.31-3.84,2.39-6.03c5.61,0.65,11.44-0.09,16.98-2.43
		c1.68,3.28,3.27,7.66,3.27,7.66c0.3,0.83,0.12,1.76-0.46,2.43c-1.37,1.59-1.82,3.88-0.93,5.98c1.12,2.64,4.08,4.05,6.84,3.26
		c3.22-0.93,4.93-4.36,3.81-7.46c-0.72-1.97-2.4-3.3-4.32-3.66c-0.98-0.18-1.79-0.86-2.14-1.79c0,0-1.85-4.48-2.92-7.92
		c5.21-2.85,9.4-6.91,12.38-11.66c6.13,2.96,14.25,7.64,14.25,7.64c0.78,0.42,1.26,1.23,1.27,2.12c0.04,2.1,1.23,4.11,3.28,5.08
		c2.59,1.22,5.75,0.31,7.27-2.12c1.79-2.84,0.77-6.54-2.13-8.1c-1.84-0.99-3.99-0.87-5.66,0.14c-0.85,0.51-1.91,0.56-2.79,0.08
		c0,0-8.06-4.38-13.81-7.89c2.27-4.62,3.48-9.74,3.48-14.95c2.51-0.24,5.9-0.11,5.9-0.11c0.6,0.02,1.13,0.38,1.4,0.91
		c0.64,1.26,1.95,2.13,3.49,2.11c1.93-0.02,3.57-1.51,3.78-3.43c0.25-2.24-1.46-4.19-3.68-4.28c-1.41-0.06-2.67,0.65-3.39,1.76
		c-0.37,0.56-0.99,0.9-1.66,0.87c0,0-3.48,0.01-5.92-0.23c-0.2-2.85-0.77-5.71-1.73-8.51c2.2-0.46,3.99-0.75,3.99-0.75
		c0.88-0.14,1.75,0.22,2.3,0.91c1.3,1.64,3.47,2.52,5.7,2.04c2.8-0.6,4.75-3.25,4.49-6.1C113.54,59.55,110.49,57.23,107.23,57.75z"
		/>
</g>
</svg>
