<?xml version="1.0" encoding="utf-8"?>
<!-- Generator: Adobe Illustrator 24.0.0, SVG Export Plug-In . SVG Version: 6.00 Build 0)  -->
<svg version="1.1" id="Capa_1" xmlns="http://www.w3.org/2000/svg" xmlns:xlink="http://www.w3.org/1999/xlink" x="0px" y="0px"
	 viewBox="0 0 512 512" style="enable-background:new 0 0 512 512;" xml:space="preserve">
<style type="text/css">
	.st0{fill:#FFFFFF;}
</style>
<g>
	<path class="st0" d="M420.95,188.52c30.14-8.28,54.57-31.61,63.86-61.93c6.56-21.42-1.26-44.69-19.08-57.86l0.76-4.16
		c4.56-25.02-12.44-48.8-37.58-52.57L352.42,0.51C329.59-2.92,308,11.34,302.18,33.68L288.8,85.12
		c-7.31,28.1-2.53,57.37,13.08,81.47L256,313.85l-45.88-147.26c15.61-24.11,20.39-53.37,13.08-81.47l-13.38-51.44
		C204,11.34,182.41-2.92,159.58,0.51L83.09,12C58,15.77,40.94,39.51,45.51,64.57l0.76,4.16c-17.82,13.17-25.65,36.44-19.08,57.86
		c9.29,30.32,33.72,53.65,63.86,61.93l15.21,113.5H0.01V422h196.97c0.1-0.04,41.27-4.74,59.01-42.69
		c18.65,39.89,58.69,42.56,59.01,42.69h196.97V302.01H405.74L420.95,188.52z M30.01,332.01h46v60h-46V332.01z M194.95,392.01h-88.94
		v-60h34.54l-22.69-169.24c-2.64-1.06-48.3-0.29-62-44.97c-2.99-9.74,0.93-20.37,9.53-25.84l13.98-8.89l-4.35-23.88
		c-1.52-8.32,4.13-16.26,12.53-17.52l76.49-11.49c7.61-1.14,14.81,3.61,16.74,11.06l13.38,51.44
		c10.44,40.14-15.87,65.73-17.18,68.42l53.87,172.9c0.76,2.56,1.45,5.37,1.91,7.8C235.66,366.26,218.95,388.32,194.95,392.01
		L194.95,392.01z M481.99,392.01h-46v-60h46V392.01z M405.99,332.01v60h-88.94c-24.05-3.7-40.71-25.79-37.82-50.22
		c0.46-2.42,1.15-5.23,1.91-7.8l53.87-172.9c-1.32-2.69-27.63-28.27-17.18-68.42l13.38-51.44c1.94-7.45,9.14-12.2,16.74-11.06
		l76.49,11.49c8.37,1.26,14.05,9.17,12.53,17.52l-4.35,23.87l13.98,8.9c8.6,5.47,12.52,16.1,9.53,25.84
		c-13.44,43.85-60.02,44.18-62,44.97l-22.69,169.24H405.99z"/>
	<path class="st0" d="M287.55,444.29l25.98-15l30.9,53.51l-25.98,15L287.55,444.29z"/>
	<path class="st0" d="M167.55,482.82l30.9-53.51l25.98,15l-30.9,53.51L167.55,482.82z"/>
	<path class="st0" d="M241,452h30v60h-30L241,452z"/>
</g>
</svg>
