<?xml version="1.0" encoding="utf-8"?>
<!-- Generator: Adobe Illustrator 24.0.0, SVG Export Plug-In . SVG Version: 6.00 Build 0)  -->
<svg version="1.1" id="Capa_1" xmlns="http://www.w3.org/2000/svg" xmlns:xlink="http://www.w3.org/1999/xlink" x="0px" y="0px"
	 viewBox="0 0 512 512" style="enable-background:new 0 0 512 512;" xml:space="preserve">
<style type="text/css">
	.st0{fill:#FFFFFF;}
	.st1{fill:#151825;}
</style>
<circle class="st0" cx="255.2" cy="255.8" r="255.8"/>
<path class="st1" d="M364.7,236.5L364.7,236.5L269,140.8c-4.1-4.1-9.5-6.4-15.3-6.4s-11.2,2.3-15.3,6.4l-95.7,95.6l-0.1,0.1
	c-8.4,8.5-8.4,22.1,0,30.5c3.8,3.8,8.9,6.1,14.3,6.3c0.3,0,0.4,0,0.7,0h3.8v70.5c0,14,11.3,25.3,25.3,25.3h37.4
	c3.8,0,6.9-3.1,6.9-6.9V307c0-6.4,5.1-11.5,11.5-11.5h22.1c6.4,0,11.5,5.1,11.5,11.5v55.2c0,3.8,3.1,6.9,6.9,6.9h37.4
	c14,0,25.3-11.3,25.3-25.3v-70.5h3.6c5.8,0,11.2-2.3,15.3-6.4C373.1,258.7,373.1,245,364.7,236.5z"/>
</svg>
