<?xml version="1.0" encoding="utf-8"?>
<!-- Generator: Adobe Illustrator 24.0.0, SVG Export Plug-In . SVG Version: 6.00 Build 0)  -->
<svg version="1.1" id="Capa_1" xmlns="http://www.w3.org/2000/svg" xmlns:xlink="http://www.w3.org/1999/xlink" x="0px" y="0px"
	 viewBox="0 0 512 512" style="enable-background:new 0 0 512 512;" xml:space="preserve">
<style type="text/css">
	.st0{fill:#FFFFFF;}
	.st1{fill:#151825;}
</style>
<circle class="st0" cx="256.2" cy="257.2" r="256"/>
<g>
	<g>
		<g>
			<ellipse class="st1" cx="255.7" cy="108.7" rx="37.2" ry="37.2"/>
			<path class="st1" d="M368.7,242.4L330.1,174c-5.4-9.7-15.7-15.7-26.9-15.7h-94.9c-11.1,0-21.4,6.1-26.9,15.8l-38.4,68
				c-5.1,9-1.9,20.2,7,25.4l0,0c9,5,20.2,1.9,25.3-7.1l34.6-65.1h11.2l-57.8,121.2c-1.4,3.1-0.1,6.7,3,8.3c0.8,0.5,1.8,0.6,2.6,0.7
				h43.4v99.1c0,10.3,8.3,18.6,18.6,18.6s18.6-8.3,18.6-18.6v-99h12.4v99.1c0,10.3,8.3,18.6,18.6,18.6s18.6-8.3,18.6-18.6v-99.1
				h43.4c3.4,0,6.3-2.8,6.3-6.3c0-0.8-0.2-1.9-0.7-2.6l-57.8-121.2h11.2l34.6,65.2c5.1,8.9,16.5,11.9,25.4,6.9
				C370.5,262.5,373.6,251.3,368.7,242.4z"/>
		</g>
	</g>
</g>
</svg>
