<?xml version="1.0" encoding="utf-8"?>
<!-- Generator: Adobe Illustrator 24.0.0, SVG Export Plug-In . SVG Version: 6.00 Build 0)  -->
<svg version="1.1" id="Capa_1" xmlns="http://www.w3.org/2000/svg" xmlns:xlink="http://www.w3.org/1999/xlink" x="0px" y="0px"
	 viewBox="0 0 512 512" style="enable-background:new 0 0 512 512;" xml:space="preserve">
<style type="text/css">
	.st0{fill:#FFFFFF;}
	.st1{fill:#151825;stroke:#FFFFFF;stroke-miterlimit:10;}
</style>
<circle class="st0" cx="255.9" cy="256.2" r="255.8"/>
<g>
	<g>
		<g>
			<ellipse transform="matrix(0.141 -0.99 0.99 0.141 110.9775 347.2339)" class="st1" cx="255.6" cy="109.7" rx="34.1" ry="34.1"/>
			<path class="st1" d="M312.3,155.1H198.8c-15.7,0-28.4,12.7-28.4,28.4v85.1c0,9.4,7.6,17,17,17s17-7.6,17-17v-73.8h11.4v204.3
				c0,9.4,7.6,17,17,17s17-7.6,17-17V285.6h11.4v113.5c0,9.4,7.6,17,17,17s17-7.6,17-17V194.8h11.4v73.8c0,9.4,7.6,17,17,17
				s17-7.6,17-17v-85.1C340.7,167.8,328,155.1,312.3,155.1z"/>
		</g>
	</g>
</g>
</svg>
