<?xml version="1.0" encoding="utf-8"?>
<!-- Generator: Adobe Illustrator 24.0.0, SVG Export Plug-In . SVG Version: 6.00 Build 0)  -->
<svg version="1.1" id="Capa_1" xmlns="http://www.w3.org/2000/svg" xmlns:xlink="http://www.w3.org/1999/xlink" x="0px" y="0px"
	 viewBox="0 0 512 512" style="enable-background:new 0 0 512 512;" xml:space="preserve">
<style type="text/css">
	.st0{fill:#FFFFFF;}
</style>
<path class="st0" d="M277.33,128c0,11.78-9.55,21.33-21.33,21.33s-21.33-9.55-21.33-21.33s9.55-21.33,21.33-21.33
	S277.33,116.22,277.33,128z"/>
<path class="st0" d="M256,405.33c-8.83,0-16-7.17-16-16V224h-21.33c-8.83,0-16-7.17-16-16s7.17-16,16-16H256c8.83,0,16,7.17,16,16
	v181.33C272,398.16,264.83,405.33,256,405.33z"/>
<path class="st0" d="M256,512C114.84,512,0,397.16,0,256S114.84,0,256,0s256,114.84,256,256S397.16,512,256,512z M256,32
	C132.48,32,32,132.48,32,256s100.48,224,224,224s224-100.48,224-224S379.52,32,256,32z"/>
<path class="st0" d="M304,405.33h-96c-8.83,0-16-7.17-16-16s7.17-16,16-16h96c8.83,0,16,7.17,16,16S312.83,405.33,304,405.33z"/>
</svg>
